<?xml version="1.0" encoding="utf-8"?>
<!-- Generator: Adobe Illustrator 23.0.2, SVG Export Plug-In . SVG Version: 6.00 Build 0)  -->
<svg version="1.1" id="Layer_1" xmlns="http://www.w3.org/2000/svg" xmlns:xlink="http://www.w3.org/1999/xlink" x="0px" y="0px"
	 viewBox="0 0 2000 1425.3" style="enable-background:new 0 0 2000 1425.3;" xml:space="preserve">
<style type="text/css">
	.st0{fill:#08153D;}
	.st1{fill:url(#SVGID_1_);}
	.st2{fill:url(#SVGID_2_);}
	.st3{fill:url(#SVGID_3_);}
	.st4{fill:url(#SVGID_4_);}
	.st5{fill:url(#SVGID_5_);}
	.st6{fill:url(#SVGID_6_);}
	.st7{fill:url(#SVGID_7_);}
	.st8{fill:url(#SVGID_8_);}
	.st9{fill:url(#SVGID_9_);}
	.st10{fill:url(#SVGID_10_);}
</style>
<g>
	<path class="st0" d="M1981.91,390.34l-63.63-232.89C1892.15,61.8,1814.5,0,1720.46,0c-19.85,0-40.1,2.78-60.17,8.26l-578.66,158.09
		c-6.15,1.68-11.37,5.75-14.5,11.3l-28.56,50.6c-5.16,9.13-6.5,19.93-3.73,30.05l22.43,82.09c0.69,2.53-1.21,5.03-3.84,5.03H76.19
		c-10.56,0-20.68,4.19-28.14,11.66L5.83,399.29C2.1,403.02,0,408.08,0,413.36v411.25h0.01v516.98c0,4.4,3.56,7.96,7.96,7.96h1313.86
		c6.28,0,12.3-2.47,16.77-6.88l41.6-41.02c7.65-7.55,11.93-17.87,11.85-28.62l-0.66-94.14l19.23-47.46
		c1.43-3.53,6.52-3.23,7.53,0.45l63.35,231.88c9.91,36.24,43.06,61.55,80.62,61.55c0,0,0,0,0.01,0c7.43,0,14.85-0.99,22.03-2.96
		l277.56-75.83c44.45-12.15,70.73-58.2,58.59-102.65l-68.1-249.25c-9.9-36.24-43.05-61.56-80.61-61.56c-6.06,0-12.1,0.66-18.02,1.97
		c-2.25,0.5-4.51-0.78-5.12-3l-0.01-0.03c-0.61-2.23,0.68-4.48,2.88-5.19c21.82-7.11,39.58-22.66,49.62-43.81
		c8.78-18.5,9.91-39.73,4.51-59.48l-5.82-21.29l125.63-127.43C2012.43,584.32,2011.56,498.87,1981.91,390.34z"/>
	<g>
		<linearGradient id="SVGID_1_" gradientUnits="userSpaceOnUse" x1="194.3655" y1="764.9083" x2="194.3655" y2="405.1161">
			<stop  offset="0" style="stop-color:#FFFFFF"/>
			<stop  offset="0.4573" style="stop-color:#FDFEFE"/>
			<stop  offset="0.6221" style="stop-color:#F6FBFD"/>
			<stop  offset="0.7395" style="stop-color:#EBF5F9"/>
			<stop  offset="0.8344" style="stop-color:#DAECF4"/>
			<stop  offset="0.9157" style="stop-color:#C4E1EE"/>
			<stop  offset="0.9865" style="stop-color:#A9D4E7"/>
			<stop  offset="1" style="stop-color:#A3D1E5"/>
		</linearGradient>
		<path class="st1" d="M216.98,535.67V405.12h112.05v343.87c0,8.79-7.13,15.92-15.92,15.92h-96.15l0.02-139.29h-45.23v123.37
			c0,8.79-7.13,15.92-15.92,15.92H59.7V464.82c0-32.97,26.73-59.7,59.7-59.7h52.35v130.55H216.98z"/>
		<linearGradient id="SVGID_2_" gradientUnits="userSpaceOnUse" x1="505.0702" y1="764.9083" x2="505.0702" y2="405.1161">
			<stop  offset="0" style="stop-color:#FFFFFF"/>
			<stop  offset="0.4573" style="stop-color:#FDFEFE"/>
			<stop  offset="0.6221" style="stop-color:#F6FBFD"/>
			<stop  offset="0.7395" style="stop-color:#EBF5F9"/>
			<stop  offset="0.8344" style="stop-color:#DAECF4"/>
			<stop  offset="0.9157" style="stop-color:#C4E1EE"/>
			<stop  offset="0.9865" style="stop-color:#A9D4E7"/>
			<stop  offset="1" style="stop-color:#A3D1E5"/>
		</linearGradient>
		<path class="st2" d="M415.38,764.91c-26.73,0-45.23-18.5-45.23-44.72V449.83c0-26.21,18.5-44.72,45.23-44.72h179.38
			c26.73,0,45.23,18.5,45.23,44.72v270.36c0,26.21-18.5,44.72-45.23,44.72H415.38z M482.71,495.58v179.38h44.72V495.58H482.71z"/>
		<linearGradient id="SVGID_3_" gradientUnits="userSpaceOnUse" x1="864.3505" y1="764.9083" x2="864.3505" y2="405.1161">
			<stop  offset="0" style="stop-color:#FFFFFF"/>
			<stop  offset="0.4573" style="stop-color:#FDFEFE"/>
			<stop  offset="0.6221" style="stop-color:#F6FBFD"/>
			<stop  offset="0.7395" style="stop-color:#EBF5F9"/>
			<stop  offset="0.8344" style="stop-color:#DAECF4"/>
			<stop  offset="0.9157" style="stop-color:#C4E1EE"/>
			<stop  offset="0.9865" style="stop-color:#A9D4E7"/>
			<stop  offset="1" style="stop-color:#A3D1E5"/>
		</linearGradient>
		<path class="st3" d="M911.38,405.12l27.76,173.21h9.25V405.12h109.48v44.72L1023,750.82c-0.93,8.03-7.73,14.09-15.81,14.09H895.45
			l-27.24-141.35h-7.71L835.74,752c-1.44,7.49-8,12.91-15.63,12.91H707.84l-37.01-315.07v-44.72h109.99v173.21h8.74l27.76-173.21
			H911.38z"/>
	</g>
	<g>
		<linearGradient id="SVGID_4_" gradientUnits="userSpaceOnUse" x1="228.1649" y1="1289.8446" x2="228.1649" y2="840.6157">
			<stop  offset="0" style="stop-color:#FFFFFF"/>
			<stop  offset="0.4573" style="stop-color:#FDFEFE"/>
			<stop  offset="0.6221" style="stop-color:#F6FBFD"/>
			<stop  offset="0.7395" style="stop-color:#EBF5F9"/>
			<stop  offset="0.8344" style="stop-color:#DAECF4"/>
			<stop  offset="0.9157" style="stop-color:#C4E1EE"/>
			<stop  offset="0.9865" style="stop-color:#A9D4E7"/>
			<stop  offset="1" style="stop-color:#A3D1E5"/>
		</linearGradient>
		<path class="st4" d="M340.14,840.62H59.71v441.27c0,4.4,3.56,7.96,7.96,7.96h116.66c8.79,0,15.92-7.13,15.92-15.92v-123.98h139.9
			c33.39,0,56.48-23.76,56.48-56.48V896.46C396.62,863.7,373.54,840.62,340.14,840.62z M256.09,1037.63h-55.84v-84.06h55.84V1037.63
			z"/>
		<linearGradient id="SVGID_5_" gradientUnits="userSpaceOnUse" x1="582.1111" y1="1289.8446" x2="582.1111" y2="840.6157">
			<stop  offset="0" style="stop-color:#FFFFFF"/>
			<stop  offset="0.4573" style="stop-color:#FDFEFE"/>
			<stop  offset="0.6221" style="stop-color:#F6FBFD"/>
			<stop  offset="0.7395" style="stop-color:#EBF5F9"/>
			<stop  offset="0.8344" style="stop-color:#DAECF4"/>
			<stop  offset="0.9157" style="stop-color:#C4E1EE"/>
			<stop  offset="0.9865" style="stop-color:#A9D4E7"/>
			<stop  offset="1" style="stop-color:#A3D1E5"/>
		</linearGradient>
		<path class="st5" d="M581.45,1177.53V840.62h-139.9v449.23h265.19c8.79,0,15.92-7.13,15.92-15.92v-96.4H581.45z"/>
		<linearGradient id="SVGID_6_" gradientUnits="userSpaceOnUse" x1="921.59" y1="1289.8446" x2="921.59" y2="840.6157">
			<stop  offset="0" style="stop-color:#FFFFFF"/>
			<stop  offset="0.4573" style="stop-color:#FDFEFE"/>
			<stop  offset="0.6221" style="stop-color:#F6FBFD"/>
			<stop  offset="0.7395" style="stop-color:#EBF5F9"/>
			<stop  offset="0.8344" style="stop-color:#DAECF4"/>
			<stop  offset="0.9157" style="stop-color:#C4E1EE"/>
			<stop  offset="0.9865" style="stop-color:#A9D4E7"/>
			<stop  offset="1" style="stop-color:#A3D1E5"/>
		</linearGradient>
		<path class="st6" d="M1024.83,840.62H818.35c-7.82,0-14.49,5.68-15.72,13.41L741.89,1234v55.84h125.48
			c8.18,0,15.03-6.2,15.84-14.34l7.57-76.12h61.61l8.36,90.47h124.62c8.79,0,15.92-7.13,15.92-15.92V1234l-60.74-379.98
			C1039.31,846.3,1032.65,840.62,1024.83,840.62z M901.05,1087.06l12.86-133.49h15.4l12.82,133.49H901.05z"/>
		<linearGradient id="SVGID_7_" gradientUnits="userSpaceOnUse" x1="1234.5615" y1="1289.8446" x2="1234.5615" y2="840.6157">
			<stop  offset="0" style="stop-color:#FFFFFF"/>
			<stop  offset="0.4573" style="stop-color:#FDFEFE"/>
			<stop  offset="0.6221" style="stop-color:#F6FBFD"/>
			<stop  offset="0.7395" style="stop-color:#EBF5F9"/>
			<stop  offset="0.8344" style="stop-color:#DAECF4"/>
			<stop  offset="0.9157" style="stop-color:#C4E1EE"/>
			<stop  offset="0.9865" style="stop-color:#A9D4E7"/>
			<stop  offset="1" style="stop-color:#A3D1E5"/>
		</linearGradient>
		<path class="st7" d="M1335.79,840.62h-34.27l-34.67,174.57h-10.27l-33.99-174.57h-140.58v55.84l109.77,270.8v122.59h123.98
			c8.79,0,15.92-7.13,15.92-15.92v-106.67l55.4-136.71L1335.79,840.62z"/>
	</g>
	<g>
		<linearGradient id="SVGID_8_" gradientUnits="userSpaceOnUse" x1="1191.0643" y1="595.3259" x2="1102.7406" y2="748.3072">
			<stop  offset="0" style="stop-color:#FFF050"/>
			<stop  offset="0.405" style="stop-color:#FFD84C"/>
			<stop  offset="1" style="stop-color:#FFAE46"/>
		</linearGradient>
		<path class="st8" d="M1101.2,646.62v-39.57h110.16v19.56l-7.87,20.01h-23.61v109.85c0,4.4-3.56,7.96-7.96,7.96h-41.28V646.62
			H1101.2z"/>
		<linearGradient id="SVGID_9_" gradientUnits="userSpaceOnUse" x1="1326.9951" y1="607.1505" x2="1236.2528" y2="764.3206">
			<stop  offset="0" style="stop-color:#FFF050"/>
			<stop  offset="0.405" style="stop-color:#FFD84C"/>
			<stop  offset="1" style="stop-color:#FFAE46"/>
		</linearGradient>
		<path class="st9" d="M1242.39,764.42c-11.69,0-19.78-8.09-19.78-19.56V626.61c0-11.47,8.09-19.56,19.78-19.56h78.46
			c11.69,0,19.78,8.09,19.78,19.56v118.26c0,11.47-8.09,19.56-19.78,19.56H1242.39z M1271.84,646.62v78.46h19.56v-78.46H1271.84z"/>
	</g>
	<linearGradient id="SVGID_10_" gradientUnits="userSpaceOnUse" x1="1101.2625" y1="712.6516" x2="1940.5039" y2="712.6516">
		<stop  offset="0" style="stop-color:#FFF050"/>
		<stop  offset="0.405" style="stop-color:#FFD84C"/>
		<stop  offset="1" style="stop-color:#FFAE46"/>
	</linearGradient>
	<path class="st10" d="M1732.99,784.79l15.38,56.28c3.48,12.72-4.02,25.85-16.74,29.33l-277.53,75.82
		c-12.72,3.48-25.85-4.02-29.33-16.74l-20.45-74.85c-26.28-96.19-19.48-148.83,42.05-227.3l112.68-143.23l-17.06-62.44
		l-311.62,85.13c-3.21,0.88-6.62-0.33-8.56-3.04l-93.66-130.45l-24.81-90.83l0-0.02c-8.45-30.92,9.77-62.82,40.68-71.27l1.73-0.47
		l530.29-144.87c85.42-23.34,161.15,21.26,184.66,107.33l63.63,232.89c25.82,94.51,26.71,155.93-42.05,227.3L1732.99,784.79z
		 M1765.29,993.61l-277.55,75.83c-12.71,3.47-20.23,16.58-16.74,29.33l68.09,249.25c3.47,12.71,16.62,20.21,29.33,16.74
		l277.55-75.83c12.71-3.47,20.21-16.62,16.74-29.33l-68.09-249.25C1791.14,997.6,1778,990.14,1765.29,993.61z M1604.01,1313.78
		c-16.97,4.64-34.47-5.35-39.11-22.32c-4.64-16.97,5.35-34.47,22.32-39.11c16.97-4.64,34.47,5.35,39.11,22.32
		C1630.97,1291.64,1620.98,1309.14,1604.01,1313.78z M1561.09,1156.67c-16.97,4.64-34.47-5.35-39.11-22.32
		c-4.64-16.97,5.35-34.47,22.32-39.11s34.47,5.35,39.11,22.32C1588.05,1134.53,1578.06,1152.03,1561.09,1156.67z M1789.41,1263.12
		c-16.97,4.64-34.47-5.35-39.11-22.32c-4.64-16.97,5.35-34.47,22.32-39.11c16.97-4.64,34.47,5.35,39.11,22.32
		C1816.37,1240.99,1806.38,1258.49,1789.41,1263.12z M1746.49,1106.02c-16.97,4.64-34.47-5.35-39.11-22.32
		c-4.64-16.97,5.35-34.47,22.32-39.11c16.97-4.64,34.47,5.35,39.11,22.32C1773.45,1083.88,1763.46,1101.38,1746.49,1106.02z"/>
</g>
</svg>
